<svg width="185" height="42" viewBox="0 0 185 42" fill="none" xmlns="http://www.w3.org/2000/svg">
<rect x="49" width="136" height="42" rx="21" fill="#F7F5F9"/>
<rect width="42" height="42" rx="21" fill="#F7F5F9"/>
<path d="M77.668 20.538C78.124 20.61 78.538 20.796 78.91 21.096C79.294 21.396 79.594 21.768 79.81 22.212C80.038 22.656 80.152 23.13 80.152 23.634C80.152 24.27 79.99 24.846 79.666 25.362C79.342 25.866 78.868 26.268 78.244 26.568C77.632 26.856 76.906 27 76.066 27H71.386V14.454H75.886C76.738 14.454 77.464 14.598 78.064 14.886C78.664 15.162 79.114 15.54 79.414 16.02C79.714 16.5 79.864 17.04 79.864 17.64C79.864 18.384 79.66 19.002 79.252 19.494C78.856 19.974 78.328 20.322 77.668 20.538ZM73.024 19.872H75.778C76.546 19.872 77.14 19.692 77.56 19.332C77.98 18.972 78.19 18.474 78.19 17.838C78.19 17.202 77.98 16.704 77.56 16.344C77.14 15.984 76.534 15.804 75.742 15.804H73.024V19.872ZM75.922 25.65C76.738 25.65 77.374 25.458 77.83 25.074C78.286 24.69 78.514 24.156 78.514 23.472C78.514 22.776 78.274 22.23 77.794 21.834C77.314 21.426 76.672 21.222 75.868 21.222H73.024V25.65H75.922ZM84.0631 18.738C84.3511 18.174 84.7591 17.736 85.2871 17.424C85.8271 17.112 86.4811 16.956 87.2491 16.956V18.648H86.8171C84.9811 18.648 84.0631 19.644 84.0631 21.636V27H82.4251V17.136H84.0631V18.738ZM93.4419 27.162C92.5179 27.162 91.6779 26.952 90.9219 26.532C90.1779 26.112 89.5899 25.518 89.1579 24.75C88.7379 23.97 88.5279 23.07 88.5279 22.05C88.5279 21.042 88.7439 20.154 89.1759 19.386C89.6199 18.606 90.2199 18.012 90.9759 17.604C91.7319 17.184 92.5779 16.974 93.5139 16.974C94.4499 16.974 95.2959 17.184 96.0519 17.604C96.8079 18.012 97.4019 18.6 97.8339 19.368C98.2779 20.136 98.4999 21.03 98.4999 22.05C98.4999 23.07 98.2719 23.97 97.8159 24.75C97.3719 25.518 96.7659 26.112 95.9979 26.532C95.2299 26.952 94.3779 27.162 93.4419 27.162ZM93.4419 25.722C94.0299 25.722 94.5819 25.584 95.0979 25.308C95.6139 25.032 96.0279 24.618 96.3399 24.066C96.6639 23.514 96.8259 22.842 96.8259 22.05C96.8259 21.258 96.6699 20.586 96.3579 20.034C96.0459 19.482 95.6379 19.074 95.1339 18.81C94.6299 18.534 94.0839 18.396 93.4959 18.396C92.8959 18.396 92.3439 18.534 91.8399 18.81C91.3479 19.074 90.9519 19.482 90.6519 20.034C90.3519 20.586 90.2019 21.258 90.2019 22.05C90.2019 22.854 90.3459 23.532 90.6339 24.084C90.9339 24.636 91.3299 25.05 91.8219 25.326C92.3139 25.59 92.8539 25.722 93.4419 25.722ZM106.162 27L102.292 22.644V27H100.654V13.68H102.292V21.51L106.09 17.136H108.376L103.732 22.05L108.394 27H106.162ZM118.917 21.69C118.917 22.002 118.899 22.332 118.863 22.68H110.979C111.039 23.652 111.369 24.414 111.969 24.966C112.581 25.506 113.319 25.776 114.183 25.776C114.891 25.776 115.479 25.614 115.947 25.29C116.427 24.954 116.763 24.51 116.955 23.958H118.719C118.455 24.906 117.927 25.68 117.135 26.28C116.343 26.868 115.359 27.162 114.183 27.162C113.247 27.162 112.407 26.952 111.663 26.532C110.931 26.112 110.355 25.518 109.935 24.75C109.515 23.97 109.305 23.07 109.305 22.05C109.305 21.03 109.509 20.136 109.917 19.368C110.325 18.6 110.895 18.012 111.627 17.604C112.371 17.184 113.223 16.974 114.183 16.974C115.119 16.974 115.947 17.178 116.667 17.586C117.387 17.994 117.939 18.558 118.323 19.278C118.719 19.986 118.917 20.79 118.917 21.69ZM117.225 21.348C117.225 20.724 117.087 20.19 116.811 19.746C116.535 19.29 116.157 18.948 115.677 18.72C115.209 18.48 114.687 18.36 114.111 18.36C113.283 18.36 112.575 18.624 111.987 19.152C111.411 19.68 111.081 20.412 110.997 21.348H117.225ZM125.885 16.956C127.085 16.956 128.057 17.322 128.801 18.054C129.545 18.774 129.917 19.818 129.917 21.186V27H128.297V21.42C128.297 20.436 128.051 19.686 127.559 19.17C127.067 18.642 126.395 18.378 125.543 18.378C124.679 18.378 123.989 18.648 123.473 19.188C122.969 19.728 122.717 20.514 122.717 21.546V27H121.079V17.136H122.717V18.54C123.041 18.036 123.479 17.646 124.031 17.37C124.595 17.094 125.213 16.956 125.885 16.956ZM136.006 28.26H154.006V10.26H136.006V28.26Z" fill="#9797A3"/>
<path d="M26.052 14.454V27H24.414V21.312H18.024V27H16.386V14.454H18.024V19.962H24.414V14.454H26.052Z" fill="black"/>
</svg>
