<svg width="309" height="42" viewBox="0 0 309 42" fill="none" xmlns="http://www.w3.org/2000/svg">
<rect width="259.877" height="42" rx="21" fill="#F7F5F9"/>
<rect x="266.267" width="42" height="42" rx="21" fill="#F7F5F9"/>
<path d="M29.478 15.454V16.786H24.024V21.016H28.452V22.348H24.024V28H22.386V15.454H29.478ZM32.3023 16.534C31.9903 16.534 31.7263 16.426 31.5103 16.21C31.2943 15.994 31.1863 15.73 31.1863 15.418C31.1863 15.106 31.2943 14.842 31.5103 14.626C31.7263 14.41 31.9903 14.302 32.3023 14.302C32.6023 14.302 32.8543 14.41 33.0583 14.626C33.2743 14.842 33.3823 15.106 33.3823 15.418C33.3823 15.73 33.2743 15.994 33.0583 16.21C32.8543 16.426 32.6023 16.534 32.3023 16.534ZM33.0943 18.136V28H31.4563V18.136H33.0943ZM40.692 17.956C41.892 17.956 42.864 18.322 43.608 19.054C44.352 19.774 44.724 20.818 44.724 22.186V28H43.104V22.42C43.104 21.436 42.858 20.686 42.366 20.17C41.874 19.642 41.202 19.378 40.35 19.378C39.486 19.378 38.796 19.648 38.28 20.188C37.776 20.728 37.524 21.514 37.524 22.546V28H35.886V18.136H37.524V19.54C37.848 19.036 38.286 18.646 38.838 18.37C39.402 18.094 40.02 17.956 40.692 17.956ZM46.7877 23.032C46.7877 22.024 46.9917 21.142 47.3997 20.386C47.8077 19.618 48.3657 19.024 49.0737 18.604C49.7937 18.184 50.5977 17.974 51.4857 17.974C52.2537 17.974 52.9677 18.154 53.6277 18.514C54.2877 18.862 54.7917 19.324 55.1397 19.9V14.68H56.7957V28H55.1397V26.146C54.8157 26.734 54.3357 27.22 53.6997 27.604C53.0637 27.976 52.3197 28.162 51.4677 28.162C50.5917 28.162 49.7937 27.946 49.0737 27.514C48.3657 27.082 47.8077 26.476 47.3997 25.696C46.9917 24.916 46.7877 24.028 46.7877 23.032ZM55.1397 23.05C55.1397 22.306 54.9897 21.658 54.6897 21.106C54.3897 20.554 53.9817 20.134 53.4657 19.846C52.9617 19.546 52.4037 19.396 51.7917 19.396C51.1797 19.396 50.6217 19.54 50.1177 19.828C49.6137 20.116 49.2117 20.536 48.9117 21.088C48.6117 21.64 48.4617 22.288 48.4617 23.032C48.4617 23.788 48.6117 24.448 48.9117 25.012C49.2117 25.564 49.6137 25.99 50.1177 26.29C50.6217 26.578 51.1797 26.722 51.7917 26.722C52.4037 26.722 52.9617 26.578 53.4657 26.29C53.9817 25.99 54.3897 25.564 54.6897 25.012C54.9897 24.448 55.1397 23.794 55.1397 23.05ZM60.4097 16.534C60.0977 16.534 59.8337 16.426 59.6177 16.21C59.4017 15.994 59.2937 15.73 59.2937 15.418C59.2937 15.106 59.4017 14.842 59.6177 14.626C59.8337 14.41 60.0977 14.302 60.4097 14.302C60.7097 14.302 60.9617 14.41 61.1657 14.626C61.3817 14.842 61.4897 15.106 61.4897 15.418C61.4897 15.73 61.3817 15.994 61.1657 16.21C60.9617 16.426 60.7097 16.534 60.4097 16.534ZM61.2017 18.136V28H59.5637V18.136H61.2017ZM68.7994 17.956C69.9994 17.956 70.9714 18.322 71.7154 19.054C72.4594 19.774 72.8314 20.818 72.8314 22.186V28H71.2114V22.42C71.2114 21.436 70.9654 20.686 70.4734 20.17C69.9814 19.642 69.3094 19.378 68.4574 19.378C67.5934 19.378 66.9034 19.648 66.3874 20.188C65.8834 20.728 65.6314 21.514 65.6314 22.546V28H63.9934V18.136H65.6314V19.54C65.9554 19.036 66.3934 18.646 66.9454 18.37C67.5094 18.094 68.1274 17.956 68.7994 17.956ZM79.5751 17.974C80.4271 17.974 81.1711 18.16 81.8071 18.532C82.4551 18.904 82.9351 19.372 83.2471 19.936V18.136H84.9031V28.216C84.9031 29.116 84.7111 29.914 84.3271 30.61C83.9431 31.318 83.3911 31.87 82.6711 32.266C81.9631 32.662 81.1351 32.86 80.1871 32.86C78.8911 32.86 77.8111 32.554 76.9471 31.942C76.0831 31.33 75.5731 30.496 75.4171 29.44H77.0371C77.2171 30.04 77.5891 30.52 78.1531 30.88C78.7171 31.252 79.3951 31.438 80.1871 31.438C81.0871 31.438 81.8191 31.156 82.3831 30.592C82.9591 30.028 83.2471 29.236 83.2471 28.216V26.146C82.9231 26.722 82.4431 27.202 81.8071 27.586C81.1711 27.97 80.4271 28.162 79.5751 28.162C78.6991 28.162 77.9011 27.946 77.1811 27.514C76.4731 27.082 75.9151 26.476 75.5071 25.696C75.0991 24.916 74.8951 24.028 74.8951 23.032C74.8951 22.024 75.0991 21.142 75.5071 20.386C75.9151 19.618 76.4731 19.024 77.1811 18.604C77.9011 18.184 78.6991 17.974 79.5751 17.974ZM83.2471 23.05C83.2471 22.306 83.0971 21.658 82.7971 21.106C82.4971 20.554 82.0891 20.134 81.5731 19.846C81.0691 19.546 80.5111 19.396 79.8991 19.396C79.2871 19.396 78.7291 19.54 78.2251 19.828C77.7211 20.116 77.3191 20.536 77.0191 21.088C76.7191 21.64 76.5691 22.288 76.5691 23.032C76.5691 23.788 76.7191 24.448 77.0191 25.012C77.3191 25.564 77.7211 25.99 78.2251 26.29C78.7291 26.578 79.2871 26.722 79.8991 26.722C80.5111 26.722 81.0691 26.578 81.5731 26.29C82.0891 25.99 82.4971 25.564 82.7971 25.012C83.0971 24.448 83.2471 23.794 83.2471 23.05ZM96.538 17.974C97.39 17.974 98.134 18.16 98.77 18.532C99.418 18.904 99.898 19.372 100.21 19.936V18.136H101.866V28.216C101.866 29.116 101.674 29.914 101.29 30.61C100.906 31.318 100.354 31.87 99.634 32.266C98.926 32.662 98.098 32.86 97.15 32.86C95.854 32.86 94.774 32.554 93.91 31.942C93.046 31.33 92.536 30.496 92.38 29.44H94C94.18 30.04 94.552 30.52 95.116 30.88C95.68 31.252 96.358 31.438 97.15 31.438C98.05 31.438 98.782 31.156 99.346 30.592C99.922 30.028 100.21 29.236 100.21 28.216V26.146C99.886 26.722 99.406 27.202 98.77 27.586C98.134 27.97 97.39 28.162 96.538 28.162C95.662 28.162 94.864 27.946 94.144 27.514C93.436 27.082 92.878 26.476 92.47 25.696C92.062 24.916 91.858 24.028 91.858 23.032C91.858 22.024 92.062 21.142 92.47 20.386C92.878 19.618 93.436 19.024 94.144 18.604C94.864 18.184 95.662 17.974 96.538 17.974ZM100.21 23.05C100.21 22.306 100.06 21.658 99.76 21.106C99.46 20.554 99.052 20.134 98.536 19.846C98.032 19.546 97.474 19.396 96.862 19.396C96.25 19.396 95.692 19.54 95.188 19.828C94.684 20.116 94.282 20.536 93.982 21.088C93.682 21.64 93.532 22.288 93.532 23.032C93.532 23.788 93.682 24.448 93.982 25.012C94.282 25.564 94.684 25.99 95.188 26.29C95.692 26.578 96.25 26.722 96.862 26.722C97.474 26.722 98.032 26.578 98.536 26.29C99.052 25.99 99.46 25.564 99.76 25.012C100.06 24.448 100.21 23.794 100.21 23.05ZM108.936 28.162C108.012 28.162 107.172 27.952 106.416 27.532C105.672 27.112 105.084 26.518 104.652 25.75C104.232 24.97 104.022 24.07 104.022 23.05C104.022 22.042 104.238 21.154 104.67 20.386C105.114 19.606 105.714 19.012 106.47 18.604C107.226 18.184 108.072 17.974 109.008 17.974C109.944 17.974 110.79 18.184 111.546 18.604C112.302 19.012 112.896 19.6 113.328 20.368C113.772 21.136 113.994 22.03 113.994 23.05C113.994 24.07 113.766 24.97 113.31 25.75C112.866 26.518 112.26 27.112 111.492 27.532C110.724 27.952 109.872 28.162 108.936 28.162ZM108.936 26.722C109.524 26.722 110.076 26.584 110.592 26.308C111.108 26.032 111.522 25.618 111.834 25.066C112.158 24.514 112.32 23.842 112.32 23.05C112.32 22.258 112.164 21.586 111.852 21.034C111.54 20.482 111.132 20.074 110.628 19.81C110.124 19.534 109.578 19.396 108.99 19.396C108.39 19.396 107.838 19.534 107.334 19.81C106.842 20.074 106.446 20.482 106.146 21.034C105.846 21.586 105.696 22.258 105.696 23.05C105.696 23.854 105.84 24.532 106.128 25.084C106.428 25.636 106.824 26.05 107.316 26.326C107.808 26.59 108.348 26.722 108.936 26.722ZM120.45 28.162C119.526 28.162 118.686 27.952 117.93 27.532C117.186 27.112 116.598 26.518 116.166 25.75C115.746 24.97 115.536 24.07 115.536 23.05C115.536 22.042 115.752 21.154 116.184 20.386C116.628 19.606 117.228 19.012 117.984 18.604C118.74 18.184 119.586 17.974 120.522 17.974C121.458 17.974 122.304 18.184 123.06 18.604C123.816 19.012 124.41 19.6 124.842 20.368C125.286 21.136 125.508 22.03 125.508 23.05C125.508 24.07 125.28 24.97 124.824 25.75C124.38 26.518 123.774 27.112 123.006 27.532C122.238 27.952 121.386 28.162 120.45 28.162ZM120.45 26.722C121.038 26.722 121.59 26.584 122.106 26.308C122.622 26.032 123.036 25.618 123.348 25.066C123.672 24.514 123.834 23.842 123.834 23.05C123.834 22.258 123.678 21.586 123.366 21.034C123.054 20.482 122.646 20.074 122.142 19.81C121.638 19.534 121.092 19.396 120.504 19.396C119.904 19.396 119.352 19.534 118.848 19.81C118.356 20.074 117.96 20.482 117.66 21.034C117.36 21.586 117.21 22.258 117.21 23.05C117.21 23.854 117.354 24.532 117.642 25.084C117.942 25.636 118.338 26.05 118.83 26.326C119.322 26.59 119.862 26.722 120.45 26.722ZM127.049 23.032C127.049 22.024 127.253 21.142 127.661 20.386C128.069 19.618 128.627 19.024 129.335 18.604C130.055 18.184 130.859 17.974 131.747 17.974C132.515 17.974 133.229 18.154 133.889 18.514C134.549 18.862 135.053 19.324 135.401 19.9V14.68H137.057V28H135.401V26.146C135.077 26.734 134.597 27.22 133.961 27.604C133.325 27.976 132.581 28.162 131.729 28.162C130.853 28.162 130.055 27.946 129.335 27.514C128.627 27.082 128.069 26.476 127.661 25.696C127.253 24.916 127.049 24.028 127.049 23.032ZM135.401 23.05C135.401 22.306 135.251 21.658 134.951 21.106C134.651 20.554 134.243 20.134 133.727 19.846C133.223 19.546 132.665 19.396 132.053 19.396C131.441 19.396 130.883 19.54 130.379 19.828C129.875 20.116 129.473 20.536 129.173 21.088C128.873 21.64 128.723 22.288 128.723 23.032C128.723 23.788 128.873 24.448 129.173 25.012C129.473 25.564 129.875 25.99 130.379 26.29C130.883 26.578 131.441 26.722 132.053 26.722C132.665 26.722 133.223 26.578 133.727 26.29C134.243 25.99 134.651 25.564 134.951 25.012C135.251 24.448 135.401 23.794 135.401 23.05ZM144.012 23.032C144.012 22.024 144.216 21.142 144.624 20.386C145.032 19.618 145.59 19.024 146.298 18.604C147.018 18.184 147.822 17.974 148.71 17.974C149.478 17.974 150.192 18.154 150.852 18.514C151.512 18.862 152.016 19.324 152.364 19.9V14.68H154.02V28H152.364V26.146C152.04 26.734 151.56 27.22 150.924 27.604C150.288 27.976 149.544 28.162 148.692 28.162C147.816 28.162 147.018 27.946 146.298 27.514C145.59 27.082 145.032 26.476 144.624 25.696C144.216 24.916 144.012 24.028 144.012 23.032ZM152.364 23.05C152.364 22.306 152.214 21.658 151.914 21.106C151.614 20.554 151.206 20.134 150.69 19.846C150.186 19.546 149.628 19.396 149.016 19.396C148.404 19.396 147.846 19.54 147.342 19.828C146.838 20.116 146.436 20.536 146.136 21.088C145.836 21.64 145.686 22.288 145.686 23.032C145.686 23.788 145.836 24.448 146.136 25.012C146.436 25.564 146.838 25.99 147.342 26.29C147.846 26.578 148.404 26.722 149.016 26.722C149.628 26.722 150.186 26.578 150.69 26.29C151.206 25.99 151.614 25.564 151.914 25.012C152.214 24.448 152.364 23.794 152.364 23.05ZM158.426 19.738C158.714 19.174 159.122 18.736 159.65 18.424C160.19 18.112 160.844 17.956 161.612 17.956V19.648H161.18C159.344 19.648 158.426 20.644 158.426 22.636V28H156.788V18.136H158.426V19.738ZM172.503 22.69C172.503 23.002 172.485 23.332 172.449 23.68H164.565C164.625 24.652 164.955 25.414 165.555 25.966C166.167 26.506 166.905 26.776 167.769 26.776C168.477 26.776 169.065 26.614 169.533 26.29C170.013 25.954 170.349 25.51 170.541 24.958H172.305C172.041 25.906 171.513 26.68 170.721 27.28C169.929 27.868 168.945 28.162 167.769 28.162C166.833 28.162 165.993 27.952 165.249 27.532C164.517 27.112 163.941 26.518 163.521 25.75C163.101 24.97 162.891 24.07 162.891 23.05C162.891 22.03 163.095 21.136 163.503 20.368C163.911 19.6 164.481 19.012 165.213 18.604C165.957 18.184 166.809 17.974 167.769 17.974C168.705 17.974 169.533 18.178 170.253 18.586C170.973 18.994 171.525 19.558 171.909 20.278C172.305 20.986 172.503 21.79 172.503 22.69ZM170.811 22.348C170.811 21.724 170.673 21.19 170.397 20.746C170.121 20.29 169.743 19.948 169.263 19.72C168.795 19.48 168.273 19.36 167.697 19.36C166.869 19.36 166.161 19.624 165.573 20.152C164.997 20.68 164.667 21.412 164.583 22.348H170.811ZM178.157 28.162C177.401 28.162 176.723 28.036 176.123 27.784C175.523 27.52 175.049 27.16 174.701 26.704C174.353 26.236 174.161 25.702 174.125 25.102H175.817C175.865 25.594 176.093 25.996 176.501 26.308C176.921 26.62 177.467 26.776 178.139 26.776C178.763 26.776 179.255 26.638 179.615 26.362C179.975 26.086 180.155 25.738 180.155 25.318C180.155 24.886 179.963 24.568 179.579 24.364C179.195 24.148 178.601 23.938 177.797 23.734C177.065 23.542 176.465 23.35 175.997 23.158C175.541 22.954 175.145 22.66 174.809 22.276C174.485 21.88 174.323 21.364 174.323 20.728C174.323 20.224 174.473 19.762 174.773 19.342C175.073 18.922 175.499 18.592 176.051 18.352C176.603 18.1 177.233 17.974 177.941 17.974C179.033 17.974 179.915 18.25 180.587 18.802C181.259 19.354 181.619 20.11 181.667 21.07H180.029C179.993 20.554 179.783 20.14 179.399 19.828C179.027 19.516 178.523 19.36 177.887 19.36C177.299 19.36 176.831 19.486 176.483 19.738C176.135 19.99 175.961 20.32 175.961 20.728C175.961 21.052 176.063 21.322 176.267 21.538C176.483 21.742 176.747 21.91 177.059 22.042C177.383 22.162 177.827 22.3 178.391 22.456C179.099 22.648 179.675 22.84 180.119 23.032C180.563 23.212 180.941 23.488 181.253 23.86C181.577 24.232 181.745 24.718 181.757 25.318C181.757 25.858 181.607 26.344 181.307 26.776C181.007 27.208 180.581 27.55 180.029 27.802C179.489 28.042 178.865 28.162 178.157 28.162ZM187.562 28.162C186.806 28.162 186.128 28.036 185.528 27.784C184.928 27.52 184.454 27.16 184.106 26.704C183.758 26.236 183.566 25.702 183.53 25.102H185.222C185.27 25.594 185.498 25.996 185.906 26.308C186.326 26.62 186.872 26.776 187.544 26.776C188.168 26.776 188.66 26.638 189.02 26.362C189.38 26.086 189.56 25.738 189.56 25.318C189.56 24.886 189.368 24.568 188.984 24.364C188.6 24.148 188.006 23.938 187.202 23.734C186.47 23.542 185.87 23.35 185.402 23.158C184.946 22.954 184.55 22.66 184.214 22.276C183.89 21.88 183.728 21.364 183.728 20.728C183.728 20.224 183.878 19.762 184.178 19.342C184.478 18.922 184.904 18.592 185.456 18.352C186.008 18.1 186.638 17.974 187.346 17.974C188.438 17.974 189.32 18.25 189.992 18.802C190.664 19.354 191.024 20.11 191.072 21.07H189.434C189.398 20.554 189.188 20.14 188.804 19.828C188.432 19.516 187.928 19.36 187.292 19.36C186.704 19.36 186.236 19.486 185.888 19.738C185.54 19.99 185.366 20.32 185.366 20.728C185.366 21.052 185.468 21.322 185.672 21.538C185.888 21.742 186.152 21.91 186.464 22.042C186.788 22.162 187.232 22.3 187.796 22.456C188.504 22.648 189.08 22.84 189.524 23.032C189.968 23.212 190.346 23.488 190.658 23.86C190.982 24.232 191.15 24.718 191.162 25.318C191.162 25.858 191.012 26.344 190.712 26.776C190.412 27.208 189.986 27.55 189.434 27.802C188.894 28.042 188.27 28.162 187.562 28.162ZM202.474 22.69C202.474 23.002 202.456 23.332 202.42 23.68H194.536C194.596 24.652 194.926 25.414 195.526 25.966C196.138 26.506 196.876 26.776 197.74 26.776C198.448 26.776 199.036 26.614 199.504 26.29C199.984 25.954 200.32 25.51 200.512 24.958H202.276C202.012 25.906 201.484 26.68 200.692 27.28C199.9 27.868 198.916 28.162 197.74 28.162C196.804 28.162 195.964 27.952 195.22 27.532C194.488 27.112 193.912 26.518 193.492 25.75C193.072 24.97 192.862 24.07 192.862 23.05C192.862 22.03 193.066 21.136 193.474 20.368C193.882 19.6 194.452 19.012 195.184 18.604C195.928 18.184 196.78 17.974 197.74 17.974C198.676 17.974 199.504 18.178 200.224 18.586C200.944 18.994 201.496 19.558 201.88 20.278C202.276 20.986 202.474 21.79 202.474 22.69ZM200.782 22.348C200.782 21.724 200.644 21.19 200.368 20.746C200.092 20.29 199.714 19.948 199.234 19.72C198.766 19.48 198.244 19.36 197.668 19.36C196.84 19.36 196.132 19.624 195.544 20.152C194.968 20.68 194.638 21.412 194.554 22.348H200.782ZM206.274 19.738C206.562 19.174 206.97 18.736 207.498 18.424C208.038 18.112 208.692 17.956 209.46 17.956V19.648H209.028C207.192 19.648 206.274 20.644 206.274 22.636V28H204.636V18.136H206.274V19.738ZM214.764 29.47H235.764V8.47H214.764V29.47Z" fill="#9797A3"/>
<path d="M292.25 29H290.612L284.024 19.01V29H282.386V16.436H284.024L290.612 26.408V16.436H292.25V29Z" fill="black"/>
</svg>
