<svg width="259" height="42" viewBox="0 0 259 42" fill="none" xmlns="http://www.w3.org/2000/svg">
<rect x="49" width="210" height="42" rx="21" fill="#F7F5F9"/>
<rect width="42" height="42" rx="21" fill="#F7F5F9"/>
<path d="M73.024 14.454V27H71.386V14.454H73.024ZM93.7545 17.136L90.6765 27H88.9845L86.6085 19.17L84.2325 27H82.5405L79.4445 17.136H81.1185L83.3865 25.416L85.8345 17.136H87.5085L89.9025 25.434L92.1345 17.136H93.7545ZM94.7681 22.032C94.7681 21.024 94.9721 20.142 95.3801 19.386C95.7881 18.618 96.3461 18.024 97.0541 17.604C97.7741 17.184 98.5721 16.974 99.4481 16.974C100.312 16.974 101.062 17.16 101.698 17.532C102.334 17.904 102.808 18.372 103.12 18.936V17.136H104.776V27H103.12V25.164C102.796 25.74 102.31 26.22 101.662 26.604C101.026 26.976 100.282 27.162 99.4301 27.162C98.5541 27.162 97.7621 26.946 97.0541 26.514C96.3461 26.082 95.7881 25.476 95.3801 24.696C94.9721 23.916 94.7681 23.028 94.7681 22.032ZM103.12 22.05C103.12 21.306 102.97 20.658 102.67 20.106C102.37 19.554 101.962 19.134 101.446 18.846C100.942 18.546 100.384 18.396 99.7721 18.396C99.1601 18.396 98.6021 18.54 98.0981 18.828C97.5941 19.116 97.1921 19.536 96.8921 20.088C96.5921 20.64 96.4421 21.288 96.4421 22.032C96.4421 22.788 96.5921 23.448 96.8921 24.012C97.1921 24.564 97.5941 24.99 98.0981 25.29C98.6021 25.578 99.1601 25.722 99.7721 25.722C100.384 25.722 100.942 25.578 101.446 25.29C101.962 24.99 102.37 24.564 102.67 24.012C102.97 23.448 103.12 22.794 103.12 22.05ZM112.35 16.956C113.55 16.956 114.522 17.322 115.266 18.054C116.01 18.774 116.382 19.818 116.382 21.186V27H114.762V21.42C114.762 20.436 114.516 19.686 114.024 19.17C113.532 18.642 112.86 18.378 112.008 18.378C111.144 18.378 110.454 18.648 109.938 19.188C109.434 19.728 109.182 20.514 109.182 21.546V27H107.544V17.136H109.182V18.54C109.506 18.036 109.944 17.646 110.496 17.37C111.06 17.094 111.678 16.956 112.35 16.956ZM121.056 18.486V24.3C121.056 24.78 121.158 25.122 121.362 25.326C121.566 25.518 121.92 25.614 122.424 25.614H123.63V27H122.154C121.242 27 120.558 26.79 120.102 26.37C119.646 25.95 119.418 25.26 119.418 24.3V18.486H118.14V17.136H119.418V14.652H121.056V17.136H123.63V18.486H121.056ZM132.411 18.486V24.3C132.411 24.78 132.513 25.122 132.717 25.326C132.921 25.518 133.275 25.614 133.779 25.614H134.985V27H133.509C132.597 27 131.913 26.79 131.457 26.37C131.001 25.95 130.773 25.26 130.773 24.3V18.486H129.495V17.136H130.773V14.652H132.411V17.136H134.985V18.486H132.411ZM141.272 27.162C140.348 27.162 139.508 26.952 138.752 26.532C138.008 26.112 137.42 25.518 136.988 24.75C136.568 23.97 136.358 23.07 136.358 22.05C136.358 21.042 136.574 20.154 137.006 19.386C137.45 18.606 138.05 18.012 138.806 17.604C139.562 17.184 140.408 16.974 141.344 16.974C142.28 16.974 143.126 17.184 143.882 17.604C144.638 18.012 145.232 18.6 145.664 19.368C146.108 20.136 146.33 21.03 146.33 22.05C146.33 23.07 146.102 23.97 145.646 24.75C145.202 25.518 144.596 26.112 143.828 26.532C143.06 26.952 142.208 27.162 141.272 27.162ZM141.272 25.722C141.86 25.722 142.412 25.584 142.928 25.308C143.444 25.032 143.858 24.618 144.17 24.066C144.494 23.514 144.656 22.842 144.656 22.05C144.656 21.258 144.5 20.586 144.188 20.034C143.876 19.482 143.468 19.074 142.964 18.81C142.46 18.534 141.914 18.396 141.326 18.396C140.726 18.396 140.174 18.534 139.67 18.81C139.178 19.074 138.782 19.482 138.482 20.034C138.182 20.586 138.032 21.258 138.032 22.05C138.032 22.854 138.176 23.532 138.464 24.084C138.764 24.636 139.16 25.05 139.652 25.326C140.144 25.59 140.684 25.722 141.272 25.722ZM160.374 14.454V15.786H154.92V20.016H159.348V21.348H154.92V27H153.282V14.454H160.374ZM163.199 15.534C162.887 15.534 162.623 15.426 162.407 15.21C162.191 14.994 162.083 14.73 162.083 14.418C162.083 14.106 162.191 13.842 162.407 13.626C162.623 13.41 162.887 13.302 163.199 13.302C163.499 13.302 163.751 13.41 163.955 13.626C164.171 13.842 164.279 14.106 164.279 14.418C164.279 14.73 164.171 14.994 163.955 15.21C163.751 15.426 163.499 15.534 163.199 15.534ZM163.991 17.136V27H162.353V17.136H163.991ZM171.93 27L169.59 23.328L167.34 27H165.63L168.816 22.104L165.63 17.136H167.484L169.824 20.79L172.056 17.136H173.766L170.598 22.014L173.784 27H171.93ZM178.809 28.26H196.809V10.26H178.809V28.26ZM207.007 18.486H204.937V27H203.299V18.486H202.021V17.136H203.299V16.434C203.299 15.33 203.581 14.526 204.145 14.022C204.721 13.506 205.639 13.248 206.899 13.248V14.616C206.179 14.616 205.669 14.76 205.369 15.048C205.081 15.324 204.937 15.786 204.937 16.434V17.136H207.007V18.486ZM208.305 22.032C208.305 21.024 208.509 20.142 208.917 19.386C209.325 18.618 209.883 18.024 210.591 17.604C211.311 17.184 212.109 16.974 212.985 16.974C213.849 16.974 214.599 17.16 215.235 17.532C215.871 17.904 216.345 18.372 216.657 18.936V17.136H218.313V27H216.657V25.164C216.333 25.74 215.847 26.22 215.199 26.604C214.563 26.976 213.819 27.162 212.967 27.162C212.091 27.162 211.299 26.946 210.591 26.514C209.883 26.082 209.325 25.476 208.917 24.696C208.509 23.916 208.305 23.028 208.305 22.032ZM216.657 22.05C216.657 21.306 216.507 20.658 216.207 20.106C215.907 19.554 215.499 19.134 214.983 18.846C214.479 18.546 213.921 18.396 213.309 18.396C212.697 18.396 212.139 18.54 211.635 18.828C211.131 19.116 210.729 19.536 210.429 20.088C210.129 20.64 209.979 21.288 209.979 22.032C209.979 22.788 210.129 23.448 210.429 24.012C210.729 24.564 211.131 24.99 211.635 25.29C212.139 25.578 212.697 25.722 213.309 25.722C213.921 25.722 214.479 25.578 214.983 25.29C215.499 24.99 215.907 24.564 216.207 24.012C216.507 23.448 216.657 22.794 216.657 22.05ZM225.887 16.956C227.087 16.956 228.059 17.322 228.803 18.054C229.547 18.774 229.919 19.818 229.919 21.186V27H228.299V21.42C228.299 20.436 228.053 19.686 227.561 19.17C227.069 18.642 226.397 18.378 225.545 18.378C224.681 18.378 223.991 18.648 223.475 19.188C222.971 19.728 222.719 20.514 222.719 21.546V27H221.081V17.136H222.719V18.54C223.043 18.036 223.481 17.646 224.033 17.37C224.597 17.094 225.215 16.956 225.887 16.956ZM236.087 27.162C235.331 27.162 234.653 27.036 234.053 26.784C233.453 26.52 232.979 26.16 232.631 25.704C232.283 25.236 232.091 24.702 232.055 24.102H233.747C233.795 24.594 234.023 24.996 234.431 25.308C234.851 25.62 235.397 25.776 236.069 25.776C236.693 25.776 237.185 25.638 237.545 25.362C237.905 25.086 238.085 24.738 238.085 24.318C238.085 23.886 237.893 23.568 237.509 23.364C237.125 23.148 236.531 22.938 235.727 22.734C234.995 22.542 234.395 22.35 233.927 22.158C233.471 21.954 233.075 21.66 232.739 21.276C232.415 20.88 232.253 20.364 232.253 19.728C232.253 19.224 232.403 18.762 232.703 18.342C233.003 17.922 233.429 17.592 233.981 17.352C234.533 17.1 235.163 16.974 235.871 16.974C236.963 16.974 237.845 17.25 238.517 17.802C239.189 18.354 239.549 19.11 239.597 20.07H237.959C237.923 19.554 237.713 19.14 237.329 18.828C236.957 18.516 236.453 18.36 235.817 18.36C235.229 18.36 234.761 18.486 234.413 18.738C234.065 18.99 233.891 19.32 233.891 19.728C233.891 20.052 233.993 20.322 234.197 20.538C234.413 20.742 234.677 20.91 234.989 21.042C235.313 21.162 235.757 21.3 236.321 21.456C237.029 21.648 237.605 21.84 238.049 22.032C238.493 22.212 238.871 22.488 239.183 22.86C239.507 23.232 239.675 23.718 239.687 24.318C239.687 24.858 239.537 25.344 239.237 25.776C238.937 26.208 238.511 26.55 237.959 26.802C237.419 27.042 236.795 27.162 236.087 27.162Z" fill="#9797A3"/>
<path d="M21.364 27.126C20.536 27.126 19.792 26.982 19.132 26.694C18.484 26.394 17.974 25.986 17.602 25.47C17.23 24.942 17.038 24.336 17.026 23.652H18.772C18.832 24.24 19.072 24.738 19.492 25.146C19.924 25.542 20.548 25.74 21.364 25.74C22.144 25.74 22.756 25.548 23.2 25.164C23.656 24.768 23.884 24.264 23.884 23.652C23.884 23.172 23.752 22.782 23.488 22.482C23.224 22.182 22.894 21.954 22.498 21.798C22.102 21.642 21.568 21.474 20.896 21.294C20.068 21.078 19.402 20.862 18.898 20.646C18.406 20.43 17.98 20.094 17.62 19.638C17.272 19.17 17.098 18.546 17.098 17.766C17.098 17.082 17.272 16.476 17.62 15.948C17.968 15.42 18.454 15.012 19.078 14.724C19.714 14.436 20.44 14.292 21.256 14.292C22.432 14.292 23.392 14.586 24.136 15.174C24.892 15.762 25.318 16.542 25.414 17.514H23.614C23.554 17.034 23.302 16.614 22.858 16.254C22.414 15.882 21.826 15.696 21.094 15.696C20.41 15.696 19.852 15.876 19.42 16.236C18.988 16.584 18.772 17.076 18.772 17.712C18.772 18.168 18.898 18.54 19.15 18.828C19.414 19.116 19.732 19.338 20.104 19.494C20.488 19.638 21.022 19.806 21.706 19.998C22.534 20.226 23.2 20.454 23.704 20.682C24.208 20.898 24.64 21.24 25 21.708C25.36 22.164 25.54 22.788 25.54 23.58C25.54 24.192 25.378 24.768 25.054 25.308C24.73 25.848 24.25 26.286 23.614 26.622C22.978 26.958 22.228 27.126 21.364 27.126Z" fill="black"/>
</svg>
