<svg width="326" height="42" viewBox="0 0 326 42" fill="none" xmlns="http://www.w3.org/2000/svg">
<rect x="49" width="277" height="42" rx="21" fill="#F7F5F9"/>
<rect width="42" height="42" rx="21" fill="#F7F5F9"/>
<path d="M81.052 14.454V27H79.414V21.312H73.024V27H71.386V14.454H73.024V19.962H79.414V14.454H81.052ZM84.6949 15.534C84.3829 15.534 84.1189 15.426 83.9029 15.21C83.6869 14.994 83.5789 14.73 83.5789 14.418C83.5789 14.106 83.6869 13.842 83.9029 13.626C84.1189 13.41 84.3829 13.302 84.6949 13.302C84.9949 13.302 85.2469 13.41 85.4509 13.626C85.6669 13.842 85.7749 14.106 85.7749 14.418C85.7749 14.73 85.6669 14.994 85.4509 15.21C85.2469 15.426 84.9949 15.534 84.6949 15.534ZM85.4869 17.136V27H83.8489V17.136H85.4869ZM90.4026 14.454L90.2046 23.454H88.8366L88.6386 14.454H90.4026ZM89.5926 27.108C89.2806 27.108 89.0166 27 88.8006 26.784C88.5846 26.568 88.4766 26.304 88.4766 25.992C88.4766 25.68 88.5846 25.416 88.8006 25.2C89.0166 24.984 89.2806 24.876 89.5926 24.876C89.8926 24.876 90.1446 24.984 90.3486 25.2C90.5646 25.416 90.6726 25.68 90.6726 25.992C90.6726 26.304 90.5646 26.568 90.3486 26.784C90.1446 27 89.8926 27.108 89.5926 27.108ZM92.2539 28.26H110.254V10.26H92.2539V28.26ZM126.105 14.454V27H124.467V21.312H118.077V27H116.439V14.454H118.077V19.962H124.467V14.454H126.105ZM133.204 27.162C132.28 27.162 131.44 26.952 130.684 26.532C129.94 26.112 129.352 25.518 128.92 24.75C128.5 23.97 128.29 23.07 128.29 22.05C128.29 21.042 128.506 20.154 128.938 19.386C129.382 18.606 129.982 18.012 130.738 17.604C131.494 17.184 132.34 16.974 133.276 16.974C134.212 16.974 135.058 17.184 135.814 17.604C136.57 18.012 137.164 18.6 137.596 19.368C138.04 20.136 138.262 21.03 138.262 22.05C138.262 23.07 138.034 23.97 137.578 24.75C137.134 25.518 136.528 26.112 135.76 26.532C134.992 26.952 134.14 27.162 133.204 27.162ZM133.204 25.722C133.792 25.722 134.344 25.584 134.86 25.308C135.376 25.032 135.79 24.618 136.102 24.066C136.426 23.514 136.588 22.842 136.588 22.05C136.588 21.258 136.432 20.586 136.12 20.034C135.808 19.482 135.4 19.074 134.896 18.81C134.392 18.534 133.846 18.396 133.258 18.396C132.658 18.396 132.106 18.534 131.602 18.81C131.11 19.074 130.714 19.482 130.414 20.034C130.114 20.586 129.964 21.258 129.964 22.05C129.964 22.854 130.108 23.532 130.396 24.084C130.696 24.636 131.092 25.05 131.584 25.326C132.076 25.59 132.616 25.722 133.204 25.722ZM153.555 17.136L150.477 27H148.785L146.409 19.17L144.033 27H142.341L139.245 17.136H140.919L143.187 25.416L145.635 17.136H147.309L149.703 25.434L151.935 17.136H153.555ZM159.368 22.05C159.368 21.03 159.572 20.142 159.98 19.386C160.388 18.618 160.952 18.024 161.672 17.604C162.404 17.184 163.238 16.974 164.174 16.974C165.386 16.974 166.382 17.268 167.162 17.856C167.954 18.444 168.476 19.26 168.728 20.304H166.964C166.796 19.704 166.466 19.23 165.974 18.882C165.494 18.534 164.894 18.36 164.174 18.36C163.238 18.36 162.482 18.684 161.906 19.332C161.33 19.968 161.042 20.874 161.042 22.05C161.042 23.238 161.33 24.156 161.906 24.804C162.482 25.452 163.238 25.776 164.174 25.776C164.894 25.776 165.494 25.608 165.974 25.272C166.454 24.936 166.784 24.456 166.964 23.832H168.728C168.464 24.84 167.936 25.65 167.144 26.262C166.352 26.862 165.362 27.162 164.174 27.162C163.238 27.162 162.404 26.952 161.672 26.532C160.952 26.112 160.388 25.518 159.98 24.75C159.572 23.982 159.368 23.082 159.368 22.05ZM170.301 22.032C170.301 21.024 170.505 20.142 170.913 19.386C171.321 18.618 171.879 18.024 172.587 17.604C173.307 17.184 174.105 16.974 174.981 16.974C175.845 16.974 176.595 17.16 177.231 17.532C177.867 17.904 178.341 18.372 178.653 18.936V17.136H180.309V27H178.653V25.164C178.329 25.74 177.843 26.22 177.195 26.604C176.559 26.976 175.815 27.162 174.963 27.162C174.087 27.162 173.295 26.946 172.587 26.514C171.879 26.082 171.321 25.476 170.913 24.696C170.505 23.916 170.301 23.028 170.301 22.032ZM178.653 22.05C178.653 21.306 178.503 20.658 178.203 20.106C177.903 19.554 177.495 19.134 176.979 18.846C176.475 18.546 175.917 18.396 175.305 18.396C174.693 18.396 174.135 18.54 173.631 18.828C173.127 19.116 172.725 19.536 172.425 20.088C172.125 20.64 171.975 21.288 171.975 22.032C171.975 22.788 172.125 23.448 172.425 24.012C172.725 24.564 173.127 24.99 173.631 25.29C174.135 25.578 174.693 25.722 175.305 25.722C175.917 25.722 176.475 25.578 176.979 25.29C177.495 24.99 177.903 24.564 178.203 24.012C178.503 23.448 178.653 22.794 178.653 22.05ZM187.883 16.956C189.083 16.956 190.055 17.322 190.799 18.054C191.543 18.774 191.915 19.818 191.915 21.186V27H190.295V21.42C190.295 20.436 190.049 19.686 189.557 19.17C189.065 18.642 188.393 18.378 187.541 18.378C186.677 18.378 185.987 18.648 185.471 19.188C184.967 19.728 184.715 20.514 184.715 21.546V27H183.077V17.136H184.715V18.54C185.039 18.036 185.477 17.646 186.029 17.37C186.593 17.094 187.211 16.956 187.883 16.956ZM212.53 17.136L209.452 27H207.76L205.384 19.17L203.008 27H201.316L198.22 17.136H199.894L202.162 25.416L204.61 17.136H206.284L208.678 25.434L210.91 17.136H212.53ZM223.156 21.69C223.156 22.002 223.138 22.332 223.102 22.68H215.218C215.278 23.652 215.608 24.414 216.208 24.966C216.82 25.506 217.558 25.776 218.422 25.776C219.13 25.776 219.718 25.614 220.186 25.29C220.666 24.954 221.002 24.51 221.194 23.958H222.958C222.694 24.906 222.166 25.68 221.374 26.28C220.582 26.868 219.598 27.162 218.422 27.162C217.486 27.162 216.646 26.952 215.902 26.532C215.17 26.112 214.594 25.518 214.174 24.75C213.754 23.97 213.544 23.07 213.544 22.05C213.544 21.03 213.748 20.136 214.156 19.368C214.564 18.6 215.134 18.012 215.866 17.604C216.61 17.184 217.462 16.974 218.422 16.974C219.358 16.974 220.186 17.178 220.906 17.586C221.626 17.994 222.178 18.558 222.562 19.278C222.958 19.986 223.156 20.79 223.156 21.69ZM221.464 21.348C221.464 20.724 221.326 20.19 221.05 19.746C220.774 19.29 220.396 18.948 219.916 18.72C219.448 18.48 218.926 18.36 218.35 18.36C217.522 18.36 216.814 18.624 216.226 19.152C215.65 19.68 215.32 20.412 215.236 21.348H221.464ZM235.012 16.956C235.756 16.956 236.428 17.118 237.028 17.442C237.628 17.754 238.096 18.228 238.432 18.864C238.78 19.5 238.954 20.274 238.954 21.186V27H237.334V21.42C237.334 20.436 237.088 19.686 236.596 19.17C236.104 18.642 235.432 18.378 234.58 18.378C233.716 18.378 233.026 18.648 232.51 19.188C232.006 19.728 231.754 20.514 231.754 21.546V27H230.116V13.68H231.754V18.54C232.078 18.036 232.522 17.646 233.086 17.37C233.662 17.094 234.304 16.956 235.012 16.956ZM250.63 21.69C250.63 22.002 250.612 22.332 250.576 22.68H242.692C242.752 23.652 243.082 24.414 243.682 24.966C244.294 25.506 245.032 25.776 245.896 25.776C246.604 25.776 247.192 25.614 247.66 25.29C248.14 24.954 248.476 24.51 248.668 23.958H250.432C250.168 24.906 249.64 25.68 248.848 26.28C248.056 26.868 247.072 27.162 245.896 27.162C244.96 27.162 244.12 26.952 243.376 26.532C242.644 26.112 242.068 25.518 241.648 24.75C241.228 23.97 241.018 23.07 241.018 22.05C241.018 21.03 241.222 20.136 241.63 19.368C242.038 18.6 242.608 18.012 243.34 17.604C244.084 17.184 244.936 16.974 245.896 16.974C246.832 16.974 247.66 17.178 248.38 17.586C249.1 17.994 249.652 18.558 250.036 19.278C250.432 19.986 250.63 20.79 250.63 21.69ZM248.938 21.348C248.938 20.724 248.8 20.19 248.524 19.746C248.248 19.29 247.87 18.948 247.39 18.72C246.922 18.48 246.4 18.36 245.824 18.36C244.996 18.36 244.288 18.624 243.7 19.152C243.124 19.68 242.794 20.412 242.71 21.348H248.938ZM254.43 13.68V27H252.792V13.68H254.43ZM258.86 18.954C259.184 18.39 259.664 17.922 260.3 17.55C260.948 17.166 261.698 16.974 262.55 16.974C263.426 16.974 264.218 17.184 264.926 17.604C265.646 18.024 266.21 18.618 266.618 19.386C267.026 20.142 267.23 21.024 267.23 22.032C267.23 23.028 267.026 23.916 266.618 24.696C266.21 25.476 265.646 26.082 264.926 26.514C264.218 26.946 263.426 27.162 262.55 27.162C261.71 27.162 260.966 26.976 260.318 26.604C259.682 26.22 259.196 25.746 258.86 25.182V31.68H257.222V17.136H258.86V18.954ZM265.556 22.032C265.556 21.288 265.406 20.64 265.106 20.088C264.806 19.536 264.398 19.116 263.882 18.828C263.378 18.54 262.82 18.396 262.208 18.396C261.608 18.396 261.05 18.546 260.534 18.846C260.03 19.134 259.622 19.56 259.31 20.124C259.01 20.676 258.86 21.318 258.86 22.05C258.86 22.794 259.01 23.448 259.31 24.012C259.622 24.564 260.03 24.99 260.534 25.29C261.05 25.578 261.608 25.722 262.208 25.722C262.82 25.722 263.378 25.578 263.882 25.29C264.398 24.99 264.806 24.564 265.106 24.012C265.406 23.448 265.556 22.788 265.556 22.032ZM282.681 17.136L276.741 31.644H275.049L276.993 26.892L273.015 17.136H274.833L277.929 25.128L280.989 17.136H282.681ZM288.629 27.162C287.705 27.162 286.865 26.952 286.109 26.532C285.365 26.112 284.777 25.518 284.345 24.75C283.925 23.97 283.715 23.07 283.715 22.05C283.715 21.042 283.931 20.154 284.363 19.386C284.807 18.606 285.407 18.012 286.163 17.604C286.919 17.184 287.765 16.974 288.701 16.974C289.637 16.974 290.483 17.184 291.239 17.604C291.995 18.012 292.589 18.6 293.021 19.368C293.465 20.136 293.687 21.03 293.687 22.05C293.687 23.07 293.459 23.97 293.003 24.75C292.559 25.518 291.953 26.112 291.185 26.532C290.417 26.952 289.565 27.162 288.629 27.162ZM288.629 25.722C289.217 25.722 289.769 25.584 290.285 25.308C290.801 25.032 291.215 24.618 291.527 24.066C291.851 23.514 292.013 22.842 292.013 22.05C292.013 21.258 291.857 20.586 291.545 20.034C291.233 19.482 290.825 19.074 290.321 18.81C289.817 18.534 289.271 18.396 288.683 18.396C288.083 18.396 287.531 18.534 287.027 18.81C286.535 19.074 286.139 19.482 285.839 20.034C285.539 20.586 285.389 21.258 285.389 22.05C285.389 22.854 285.533 23.532 285.821 24.084C286.121 24.636 286.517 25.05 287.009 25.326C287.501 25.59 288.041 25.722 288.629 25.722ZM304.589 17.136V27H302.951V25.542C302.639 26.046 302.201 26.442 301.637 26.73C301.085 27.006 300.473 27.144 299.801 27.144C299.033 27.144 298.343 26.988 297.731 26.676C297.119 26.352 296.633 25.872 296.273 25.236C295.925 24.6 295.751 23.826 295.751 22.914V17.136H297.371V22.698C297.371 23.67 297.617 24.42 298.109 24.948C298.601 25.464 299.273 25.722 300.125 25.722C301.001 25.722 301.691 25.452 302.195 24.912C302.699 24.372 302.951 23.586 302.951 22.554V17.136H304.589Z" fill="#9797A3"/>
</svg>
