<svg width="163" height="42" viewBox="0 0 163 42" fill="none" xmlns="http://www.w3.org/2000/svg">
<rect width="114" height="42" rx="21" fill="#F7F5F9"/>
<rect x="121" width="42" height="42" rx="21" fill="#F7F5F9"/>
<path d="M32.25 28H30.612L24.024 18.01V28H22.386V15.436H24.024L30.612 25.408V15.436H32.25V28ZM44.0423 22.69C44.0423 23.002 44.0243 23.332 43.9883 23.68H36.1043C36.1643 24.652 36.4943 25.414 37.0943 25.966C37.7063 26.506 38.4443 26.776 39.3083 26.776C40.0163 26.776 40.6043 26.614 41.0723 26.29C41.5523 25.954 41.8883 25.51 42.0803 24.958H43.8443C43.5803 25.906 43.0523 26.68 42.2603 27.28C41.4683 27.868 40.4843 28.162 39.3083 28.162C38.3723 28.162 37.5323 27.952 36.7883 27.532C36.0563 27.112 35.4803 26.518 35.0603 25.75C34.6403 24.97 34.4303 24.07 34.4303 23.05C34.4303 22.03 34.6343 21.136 35.0423 20.368C35.4503 19.6 36.0203 19.012 36.7523 18.604C37.4963 18.184 38.3483 17.974 39.3083 17.974C40.2443 17.974 41.0723 18.178 41.7923 18.586C42.5123 18.994 43.0643 19.558 43.4483 20.278C43.8443 20.986 44.0423 21.79 44.0423 22.69ZM42.3503 22.348C42.3503 21.724 42.2123 21.19 41.9363 20.746C41.6603 20.29 41.2823 19.948 40.8023 19.72C40.3343 19.48 39.8123 19.36 39.2363 19.36C38.4083 19.36 37.7003 19.624 37.1123 20.152C36.5363 20.68 36.2063 21.412 36.1223 22.348H42.3503ZM55.2044 22.69C55.2044 23.002 55.1864 23.332 55.1504 23.68H47.2664C47.3264 24.652 47.6564 25.414 48.2564 25.966C48.8684 26.506 49.6064 26.776 50.4704 26.776C51.1784 26.776 51.7664 26.614 52.2344 26.29C52.7144 25.954 53.0504 25.51 53.2424 24.958H55.0064C54.7424 25.906 54.2144 26.68 53.4224 27.28C52.6304 27.868 51.6464 28.162 50.4704 28.162C49.5344 28.162 48.6944 27.952 47.9504 27.532C47.2184 27.112 46.6424 26.518 46.2224 25.75C45.8024 24.97 45.5924 24.07 45.5924 23.05C45.5924 22.03 45.7964 21.136 46.2044 20.368C46.6124 19.6 47.1824 19.012 47.9144 18.604C48.6584 18.184 49.5104 17.974 50.4704 17.974C51.4064 17.974 52.2344 18.178 52.9544 18.586C53.6744 18.994 54.2264 19.558 54.6104 20.278C55.0064 20.986 55.2044 21.79 55.2044 22.69ZM53.5124 22.348C53.5124 21.724 53.3744 21.19 53.0984 20.746C52.8224 20.29 52.4444 19.948 51.9644 19.72C51.4964 19.48 50.9744 19.36 50.3984 19.36C49.5704 19.36 48.8624 19.624 48.2744 20.152C47.6984 20.68 47.3684 21.412 47.2844 22.348H53.5124ZM56.7545 23.032C56.7545 22.024 56.9585 21.142 57.3665 20.386C57.7745 19.618 58.3325 19.024 59.0405 18.604C59.7605 18.184 60.5645 17.974 61.4525 17.974C62.2205 17.974 62.9345 18.154 63.5945 18.514C64.2545 18.862 64.7585 19.324 65.1065 19.9V14.68H66.7625V28H65.1065V26.146C64.7825 26.734 64.3025 27.22 63.6665 27.604C63.0305 27.976 62.2865 28.162 61.4345 28.162C60.5585 28.162 59.7605 27.946 59.0405 27.514C58.3325 27.082 57.7745 26.476 57.3665 25.696C56.9585 24.916 56.7545 24.028 56.7545 23.032ZM65.1065 23.05C65.1065 22.306 64.9565 21.658 64.6565 21.106C64.3565 20.554 63.9485 20.134 63.4325 19.846C62.9285 19.546 62.3705 19.396 61.7585 19.396C61.1465 19.396 60.5885 19.54 60.0845 19.828C59.5805 20.116 59.1785 20.536 58.8785 21.088C58.5785 21.64 58.4285 22.288 58.4285 23.032C58.4285 23.788 58.5785 24.448 58.8785 25.012C59.1785 25.564 59.5805 25.99 60.0845 26.29C60.5885 26.578 61.1465 26.722 61.7585 26.722C62.3705 26.722 62.9285 26.578 63.4325 26.29C63.9485 25.99 64.3565 25.564 64.6565 25.012C64.9565 24.448 65.1065 23.794 65.1065 23.05ZM74.2764 29.61H97.2764V6.61H74.2764V29.61Z" fill="#9797A3"/>
</svg>
