<svg width="292" height="42" viewBox="0 0 292 42" fill="none" xmlns="http://www.w3.org/2000/svg">
<rect width="244" height="42" rx="21" fill="#F7F5F9"/>
<rect x="250" width="42" height="42" rx="21" fill="#F7F5F9"/>
<path d="M24.024 14.454V27H22.386V14.454H24.024ZM31.0025 22.032C31.0025 21.024 31.2065 20.142 31.6145 19.386C32.0225 18.618 32.5805 18.024 33.2885 17.604C34.0085 17.184 34.8065 16.974 35.6825 16.974C36.5465 16.974 37.2965 17.16 37.9325 17.532C38.5685 17.904 39.0425 18.372 39.3545 18.936V17.136H41.0105V27H39.3545V25.164C39.0305 25.74 38.5445 26.22 37.8965 26.604C37.2605 26.976 36.5165 27.162 35.6645 27.162C34.7885 27.162 33.9965 26.946 33.2885 26.514C32.5805 26.082 32.0225 25.476 31.6145 24.696C31.2065 23.916 31.0025 23.028 31.0025 22.032ZM39.3545 22.05C39.3545 21.306 39.2045 20.658 38.9045 20.106C38.6045 19.554 38.1965 19.134 37.6805 18.846C37.1765 18.546 36.6185 18.396 36.0065 18.396C35.3945 18.396 34.8365 18.54 34.3325 18.828C33.8285 19.116 33.4265 19.536 33.1265 20.088C32.8265 20.64 32.6765 21.288 32.6765 22.032C32.6765 22.788 32.8265 23.448 33.1265 24.012C33.4265 24.564 33.8285 24.99 34.3325 25.29C34.8365 25.578 35.3945 25.722 36.0065 25.722C36.6185 25.722 37.1765 25.578 37.6805 25.29C38.1965 24.99 38.6045 24.564 38.9045 24.012C39.2045 23.448 39.3545 22.794 39.3545 22.05ZM55.6406 16.956C56.4086 16.956 57.0926 17.118 57.6926 17.442C58.2926 17.754 58.7666 18.228 59.1146 18.864C59.4626 19.5 59.6366 20.274 59.6366 21.186V27H58.0166V21.42C58.0166 20.436 57.7706 19.686 57.2786 19.17C56.7986 18.642 56.1446 18.378 55.3166 18.378C54.4646 18.378 53.7866 18.654 53.2826 19.206C52.7786 19.746 52.5266 20.532 52.5266 21.564V27H50.9066V21.42C50.9066 20.436 50.6606 19.686 50.1686 19.17C49.6886 18.642 49.0346 18.378 48.2066 18.378C47.3546 18.378 46.6766 18.654 46.1726 19.206C45.6686 19.746 45.4166 20.532 45.4166 21.564V27H43.7786V17.136H45.4166V18.558C45.7406 18.042 46.1726 17.646 46.7126 17.37C47.2646 17.094 47.8706 16.956 48.5306 16.956C49.3586 16.956 50.0906 17.142 50.7266 17.514C51.3626 17.886 51.8366 18.432 52.1486 19.152C52.4246 18.456 52.8806 17.916 53.5166 17.532C54.1526 17.148 54.8606 16.956 55.6406 16.956ZM68.7603 25.668H73.1523V27H67.1223V14.454H68.7603V25.668ZM79.1939 27.162C78.2699 27.162 77.4299 26.952 76.6739 26.532C75.9299 26.112 75.3419 25.518 74.9099 24.75C74.4899 23.97 74.2799 23.07 74.2799 22.05C74.2799 21.042 74.4959 20.154 74.9279 19.386C75.3719 18.606 75.9719 18.012 76.7279 17.604C77.4839 17.184 78.3299 16.974 79.2659 16.974C80.2019 16.974 81.0479 17.184 81.8039 17.604C82.5599 18.012 83.1539 18.6 83.5859 19.368C84.0299 20.136 84.2519 21.03 84.2519 22.05C84.2519 23.07 84.0239 23.97 83.5679 24.75C83.1239 25.518 82.5179 26.112 81.7499 26.532C80.9819 26.952 80.1299 27.162 79.1939 27.162ZM79.1939 25.722C79.7819 25.722 80.3339 25.584 80.8499 25.308C81.3659 25.032 81.7799 24.618 82.0919 24.066C82.4159 23.514 82.5779 22.842 82.5779 22.05C82.5779 21.258 82.4219 20.586 82.1099 20.034C81.7979 19.482 81.3899 19.074 80.8859 18.81C80.3819 18.534 79.8359 18.396 79.2479 18.396C78.6479 18.396 78.0959 18.534 77.5919 18.81C77.0999 19.074 76.7039 19.482 76.4039 20.034C76.1039 20.586 75.9539 21.258 75.9539 22.05C75.9539 22.854 76.0979 23.532 76.3859 24.084C76.6859 24.636 77.0819 25.05 77.5739 25.326C78.0659 25.59 78.6059 25.722 79.1939 25.722ZM90.7075 27.162C89.7835 27.162 88.9435 26.952 88.1875 26.532C87.4435 26.112 86.8555 25.518 86.4235 24.75C86.0035 23.97 85.7935 23.07 85.7935 22.05C85.7935 21.042 86.0095 20.154 86.4415 19.386C86.8855 18.606 87.4855 18.012 88.2415 17.604C88.9975 17.184 89.8435 16.974 90.7795 16.974C91.7155 16.974 92.5615 17.184 93.3175 17.604C94.0735 18.012 94.6675 18.6 95.0995 19.368C95.5435 20.136 95.7655 21.03 95.7655 22.05C95.7655 23.07 95.5375 23.97 95.0815 24.75C94.6375 25.518 94.0315 26.112 93.2635 26.532C92.4955 26.952 91.6435 27.162 90.7075 27.162ZM90.7075 25.722C91.2955 25.722 91.8475 25.584 92.3635 25.308C92.8795 25.032 93.2935 24.618 93.6055 24.066C93.9295 23.514 94.0915 22.842 94.0915 22.05C94.0915 21.258 93.9355 20.586 93.6235 20.034C93.3115 19.482 92.9035 19.074 92.3995 18.81C91.8955 18.534 91.3495 18.396 90.7615 18.396C90.1615 18.396 89.6095 18.534 89.1055 18.81C88.6135 19.074 88.2175 19.482 87.9175 20.034C87.6175 20.586 87.4675 21.258 87.4675 22.05C87.4675 22.854 87.6115 23.532 87.8995 24.084C88.1995 24.636 88.5955 25.05 89.0875 25.326C89.5795 25.59 90.1195 25.722 90.7075 25.722ZM103.427 27L99.5572 22.644V27H97.9192V13.68H99.5572V21.51L103.355 17.136H105.641L100.997 22.05L105.659 27H103.427ZM108.029 15.534C107.717 15.534 107.453 15.426 107.237 15.21C107.021 14.994 106.913 14.73 106.913 14.418C106.913 14.106 107.021 13.842 107.237 13.626C107.453 13.41 107.717 13.302 108.029 13.302C108.329 13.302 108.581 13.41 108.785 13.626C109.001 13.842 109.109 14.106 109.109 14.418C109.109 14.73 109.001 14.994 108.785 15.21C108.581 15.426 108.329 15.534 108.029 15.534ZM108.821 17.136V27H107.183V17.136H108.821ZM116.419 16.956C117.619 16.956 118.591 17.322 119.335 18.054C120.079 18.774 120.451 19.818 120.451 21.186V27H118.831V21.42C118.831 20.436 118.585 19.686 118.093 19.17C117.601 18.642 116.929 18.378 116.077 18.378C115.213 18.378 114.523 18.648 114.007 19.188C113.503 19.728 113.251 20.514 113.251 21.546V27H111.613V17.136H113.251V18.54C113.575 18.036 114.013 17.646 114.565 17.37C115.129 17.094 115.747 16.956 116.419 16.956ZM127.194 16.974C128.046 16.974 128.79 17.16 129.426 17.532C130.074 17.904 130.554 18.372 130.866 18.936V17.136H132.522V27.216C132.522 28.116 132.33 28.914 131.946 29.61C131.562 30.318 131.01 30.87 130.29 31.266C129.582 31.662 128.754 31.86 127.806 31.86C126.51 31.86 125.43 31.554 124.566 30.942C123.702 30.33 123.192 29.496 123.036 28.44H124.656C124.836 29.04 125.208 29.52 125.772 29.88C126.336 30.252 127.014 30.438 127.806 30.438C128.706 30.438 129.438 30.156 130.002 29.592C130.578 29.028 130.866 28.236 130.866 27.216V25.146C130.542 25.722 130.062 26.202 129.426 26.586C128.79 26.97 128.046 27.162 127.194 27.162C126.318 27.162 125.52 26.946 124.8 26.514C124.092 26.082 123.534 25.476 123.126 24.696C122.718 23.916 122.514 23.028 122.514 22.032C122.514 21.024 122.718 20.142 123.126 19.386C123.534 18.618 124.092 18.024 124.8 17.604C125.52 17.184 126.318 16.974 127.194 16.974ZM130.866 22.05C130.866 21.306 130.716 20.658 130.416 20.106C130.116 19.554 129.708 19.134 129.192 18.846C128.688 18.546 128.13 18.396 127.518 18.396C126.906 18.396 126.348 18.54 125.844 18.828C125.34 19.116 124.938 19.536 124.638 20.088C124.338 20.64 124.188 21.288 124.188 22.032C124.188 22.788 124.338 23.448 124.638 24.012C124.938 24.564 125.34 24.99 125.844 25.29C126.348 25.578 126.906 25.722 127.518 25.722C128.13 25.722 128.688 25.578 129.192 25.29C129.708 24.99 130.116 24.564 130.416 24.012C130.716 23.448 130.866 22.794 130.866 22.05ZM144.103 18.486H142.033V27H140.395V18.486H139.117V17.136H140.395V16.434C140.395 15.33 140.677 14.526 141.241 14.022C141.817 13.506 142.735 13.248 143.995 13.248V14.616C143.275 14.616 142.765 14.76 142.465 15.048C142.177 15.324 142.033 15.786 142.033 16.434V17.136H144.103V18.486ZM150.315 27.162C149.391 27.162 148.551 26.952 147.795 26.532C147.051 26.112 146.463 25.518 146.031 24.75C145.611 23.97 145.401 23.07 145.401 22.05C145.401 21.042 145.617 20.154 146.049 19.386C146.493 18.606 147.093 18.012 147.849 17.604C148.605 17.184 149.451 16.974 150.387 16.974C151.323 16.974 152.169 17.184 152.925 17.604C153.681 18.012 154.275 18.6 154.707 19.368C155.151 20.136 155.373 21.03 155.373 22.05C155.373 23.07 155.145 23.97 154.689 24.75C154.245 25.518 153.639 26.112 152.871 26.532C152.103 26.952 151.251 27.162 150.315 27.162ZM150.315 25.722C150.903 25.722 151.455 25.584 151.971 25.308C152.487 25.032 152.901 24.618 153.213 24.066C153.537 23.514 153.699 22.842 153.699 22.05C153.699 21.258 153.543 20.586 153.231 20.034C152.919 19.482 152.511 19.074 152.007 18.81C151.503 18.534 150.957 18.396 150.369 18.396C149.769 18.396 149.217 18.534 148.713 18.81C148.221 19.074 147.825 19.482 147.525 20.034C147.225 20.586 147.075 21.258 147.075 22.05C147.075 22.854 147.219 23.532 147.507 24.084C147.807 24.636 148.203 25.05 148.695 25.326C149.187 25.59 149.727 25.722 150.315 25.722ZM159.165 18.738C159.453 18.174 159.861 17.736 160.389 17.424C160.929 17.112 161.583 16.956 162.351 16.956V18.648H161.919C160.083 18.648 159.165 19.644 159.165 21.636V27H157.527V17.136H159.165V18.738Z" fill="#9797A3"/>
<path d="M170 31.61H193V8.61H170V31.61Z" fill="black"/>
<path d="M274.19 27L269.024 21.276V27H267.386V14.454H269.024V20.268L274.208 14.454H276.278L270.59 20.736L276.332 27H274.19Z" fill="black"/>
</svg>
